<svg width="9" height="12" viewBox="0 0 9 12" fill="none" xmlns="http://www.w3.org/2000/svg">
<path d="M0.226562 0.578125H3.61719C5.1901 0.578125 6.32552 0.807292 7.02344 1.26562C7.72656 1.72396 8.07812 2.44792 8.07812 3.4375C8.07812 4.10417 7.90625 4.65885 7.5625 5.10156C7.21875 5.54427 6.72396 5.82292 6.07812 5.9375V6.01562C6.88021 6.16667 7.46875 6.46615 7.84375 6.91406C8.22396 7.35677 8.41406 7.95833 8.41406 8.71875C8.41406 9.74479 8.05469 10.5495 7.33594 11.1328C6.6224 11.7109 5.6276 12 4.35156 12H0.226562V0.578125ZM2.09375 5.29688H3.89062C4.67188 5.29688 5.24219 5.17448 5.60156 4.92969C5.96094 4.67969 6.14062 4.25781 6.14062 3.66406C6.14062 3.1276 5.94531 2.73958 5.55469 2.5C5.16927 2.26042 4.55469 2.14062 3.71094 2.14062H2.09375V5.29688ZM2.09375 6.8125V10.4297H4.07812C4.85938 10.4297 5.44792 10.2812 5.84375 9.98438C6.24479 9.68229 6.44531 9.20833 6.44531 8.5625C6.44531 7.96875 6.24219 7.52865 5.83594 7.24219C5.42969 6.95573 4.8125 6.8125 3.98438 6.8125H2.09375Z" fill="#0683F9"/>
<path d="M0.226562 0.578125H3.61719C5.1901 0.578125 6.32552 0.807292 7.02344 1.26562C7.72656 1.72396 8.07812 2.44792 8.07812 3.4375C8.07812 4.10417 7.90625 4.65885 7.5625 5.10156C7.21875 5.54427 6.72396 5.82292 6.07812 5.9375V6.01562C6.88021 6.16667 7.46875 6.46615 7.84375 6.91406C8.22396 7.35677 8.41406 7.95833 8.41406 8.71875C8.41406 9.74479 8.05469 10.5495 7.33594 11.1328C6.6224 11.7109 5.6276 12 4.35156 12H0.226562V0.578125ZM2.09375 5.29688H3.89062C4.67188 5.29688 5.24219 5.17448 5.60156 4.92969C5.96094 4.67969 6.14062 4.25781 6.14062 3.66406C6.14062 3.1276 5.94531 2.73958 5.55469 2.5C5.16927 2.26042 4.55469 2.14062 3.71094 2.14062H2.09375V5.29688ZM2.09375 6.8125V10.4297H4.07812C4.85938 10.4297 5.44792 10.2812 5.84375 9.98438C6.24479 9.68229 6.44531 9.20833 6.44531 8.5625C6.44531 7.96875 6.24219 7.52865 5.83594 7.24219C5.42969 6.95573 4.8125 6.8125 3.98438 6.8125H2.09375Z" fill="white" fill-opacity="0.5"/>
</svg>
