<svg width="9" height="12" viewBox="0 0 9 12" fill="none" xmlns="http://www.w3.org/2000/svg">
<path d="M2.25781 5.89062H3.55469C4.42448 5.89062 5.05469 5.72917 5.44531 5.40625C5.83594 5.08333 6.03125 4.60417 6.03125 3.96875C6.03125 3.32292 5.82031 2.85938 5.39844 2.57812C4.97656 2.29688 4.34115 2.15625 3.49219 2.15625H2.25781V5.89062ZM2.25781 7.4375V12H0.390625V0.578125H3.61719C5.09115 0.578125 6.18229 0.854167 6.89062 1.40625C7.59896 1.95833 7.95312 2.79167 7.95312 3.90625C7.95312 5.32812 7.21354 6.34115 5.73438 6.94531L8.96094 12H6.83594L4.10156 7.4375H2.25781Z" fill="#886BFF"/>
<path d="M2.25781 5.89062H3.55469C4.42448 5.89062 5.05469 5.72917 5.44531 5.40625C5.83594 5.08333 6.03125 4.60417 6.03125 3.96875C6.03125 3.32292 5.82031 2.85938 5.39844 2.57812C4.97656 2.29688 4.34115 2.15625 3.49219 2.15625H2.25781V5.89062ZM2.25781 7.4375V12H0.390625V0.578125H3.61719C5.09115 0.578125 6.18229 0.854167 6.89062 1.40625C7.59896 1.95833 7.95312 2.79167 7.95312 3.90625C7.95312 5.32812 7.21354 6.34115 5.73438 6.94531L8.96094 12H6.83594L4.10156 7.4375H2.25781Z" fill="white" fill-opacity="0.5"/>
</svg>
